# xmcd
#
# Track frame offsets:
#	150
#	16111
#	34365
#	51420
#	69075
#	87289
#	100273
#	115410
#	128829
#	145459
#	159005
#
# Disc length: 2287 seconds
#
# Revision: 792487279
# Processed by: cddbd v1.5.2PL0 Copyright (c) Steve Scherf et al.
# Submitted via: EZCDAudioConverter 8.2.2.1
#
DISCID=8d08ed0b
DTITLE=蔣麗萍 - BTB-情竇初開-蔣麗萍
DYEAR=2007
DGENRE=Contemporary Pop
TTITLE0=情竇初開
TTITLE1=明日有會期
TTITLE2=灰色的心
TTITLE3=黎明
TTITLE4=時光倒流
TTITLE5=奇在我認識你
TTITLE6=迷惘
TTITLE7=訴心聲
TTITLE8=夢裡情
TTITLE9=一片白雲
TTITLE10=愛情的代價
EXTD=
EXTT0=
EXTT1=
EXTT2=
EXTT3=
EXTT4=
EXTT5=
EXTT6=
EXTT7=
EXTT8=
EXTT9=
EXTT10=
PLAYORDER=
